# Blender v2.82 (sub 7) OBJ File: ''
# www.blender.org
mtllib 2.mtl
o Rock_Type1_03_mesh_Circle.004
v -0.265874 0.536561 0.029407
v -0.446639 0.536561 0.605605
v -0.300902 0.536561 0.763188
v -0.153312 0.536561 0.666139
v -0.300902 0.360665 0.763188
v -0.099285 0.360665 0.630613
v -0.465370 0.517633 0.117566
v -0.486605 0.360665 0.562390
v -0.486605 0.517633 0.562390
v -0.263405 0.360665 -0.022328
v -0.263405 0.517633 -0.022328
v -0.465370 0.360665 0.117566
v -0.099285 0.517633 0.630613
v 0.026787 0.360665 0.196321
v 0.026787 0.517633 0.196321
v -0.424374 0.536561 0.139194
v -0.021848 0.536561 0.213272
v -0.203270 0.408068 -0.471309
v -0.289833 0.400062 -0.479922
v -0.248008 0.432696 -0.396572
v -0.381638 0.408069 0.768167
v -0.811695 0.017937 0.613082
v -0.224210 0.017937 0.824938
v -0.257075 0.366087 -0.578530
v -0.683984 0.017937 -0.083174
v -0.683984 0.366088 -0.083174
v 0.325253 0.017937 -0.465737
v 0.325253 0.366087 -0.465737
v -0.257075 0.017937 -0.578530
v 0.193692 0.103386 0.590188
v 0.660954 0.017937 0.327710
v 0.660954 0.366087 0.327710
v 0.120731 0.408068 0.505675
v 0.149430 0.376674 0.486642
v 0.173403 0.408069 0.235345
v -0.711469 0.408069 0.066671
v -0.720973 0.432696 0.446389
v -0.643061 0.432696 0.021631
v 0.533026 0.408068 0.290246
v 0.242224 0.408068 -0.360497
v -0.224210 0.366087 0.824938
v 0.206587 0.366087 0.582944
v 0.426838 0.732178 -0.506797
v -0.364618 0.732178 -0.572757
v -0.524844 0.732178 -0.340348
v -0.524844 0.027792 -0.340348
v -0.296639 0.656381 -0.119827
v 0.256238 0.656381 -0.737394
v -0.320679 0.027792 -0.636492
v -0.320679 0.656381 -0.636492
v 0.493936 0.027792 -0.518532
v -0.296639 0.027792 -0.119827
v 0.493936 0.656381 -0.518532
v 0.256238 0.027792 -0.737394
v 0.296966 0.027792 -0.083165
v 0.296966 0.656381 -0.083165
v -0.357791 0.732178 -0.178920
v 0.240296 0.732178 -0.678556
v 0.261203 0.732178 -0.140690
v 0.240767 0.366087 0.563744
v 0.217503 0.334693 0.572658
v 0.167189 0.408068 0.481400
v -0.811695 0.408069 0.613082
v 0.098301 0.432696 -0.310431
v -0.621695 0.400062 -0.094852
vt 0.736700 0.230900
vt 0.689200 0.278400
vt 0.689200 0.230900
vt 0.735600 0.262000
vt 0.699000 0.235400
vt 0.690300 0.262000
vt 0.736700 0.230900
vt 0.689200 0.278400
vt 0.689200 0.230900
vt 0.736700 0.230900
vt 0.689200 0.278400
vt 0.689200 0.230900
vt 0.736700 0.230900
vt 0.689200 0.278400
vt 0.689200 0.230900
vt 0.736700 0.230900
vt 0.689200 0.278400
vt 0.689200 0.230900
vt 0.689200 0.230900
vt 0.736700 0.278400
vt 0.689200 0.278400
vt 0.736700 0.230900
vt 0.689200 0.278400
vt 0.689200 0.230900
vt 0.689200 0.230900
vt 0.736700 0.278400
vt 0.689200 0.278400
vt 0.736700 0.230900
vt 0.689200 0.278400
vt 0.689200 0.230900
vt 0.689200 0.230900
vt 0.736700 0.278400
vt 0.689200 0.278400
vt 0.689200 0.230900
vt 0.736700 0.278400
vt 0.689200 0.278400
vt 0.689200 0.278400
vt 0.689200 0.230900
vt 0.735600 0.262000
vt 0.699000 0.235400
vt 0.690300 0.262000
vt 0.212300 0.189200
vt 0.259900 0.236700
vt 0.212300 0.236700
vt 0.258700 0.220300
vt 0.222100 0.193700
vt 0.213500 0.220300
vt 0.259900 0.189200
vt 0.212300 0.236700
vt 0.212300 0.189200
vt 0.259900 0.189200
vt 0.212300 0.236700
vt 0.212300 0.189200
vt 0.259900 0.189200
vt 0.212300 0.236700
vt 0.212300 0.189200
vt 0.259300 0.207700
vt 0.212900 0.207700
vt 0.217500 0.227800
vt 0.212300 0.189200
vt 0.259900 0.236700
vt 0.212300 0.236700
vt 0.259900 0.189200
vt 0.212300 0.236700
vt 0.212300 0.189200
vt 0.740100 0.763300
vt 0.787700 0.763300
vt 0.787700 0.810800
vt 0.212300 0.189200
vt 0.259900 0.236700
vt 0.212300 0.236700
vt 0.259900 0.189200
vt 0.212300 0.236700
vt 0.212300 0.189200
vt 0.259900 0.189200
vt 0.212300 0.236700
vt 0.212300 0.189200
vt 0.259900 0.236700
vt 0.212300 0.236700
vt 0.258700 0.220300
vt 0.222100 0.193700
vt 0.213500 0.220300
vt 0.287700 0.749400
vt 0.240100 0.796900
vt 0.240100 0.749400
vt 0.249900 0.753900
vt 0.263900 0.796900
vt 0.277900 0.753900
vt 0.287700 0.749400
vt 0.240100 0.796900
vt 0.240100 0.749400
vt 0.287700 0.749400
vt 0.240100 0.796900
vt 0.240100 0.749400
vt 0.287700 0.749400
vt 0.240100 0.796900
vt 0.240100 0.749400
vt 0.287700 0.749400
vt 0.240100 0.796900
vt 0.240100 0.749400
vt 0.240100 0.749400
vt 0.287700 0.796900
vt 0.240100 0.796900
vt 0.287700 0.749400
vt 0.240100 0.796900
vt 0.240100 0.749400
vt 0.240100 0.749400
vt 0.287700 0.796900
vt 0.240100 0.796900
vt 0.287700 0.749400
vt 0.240100 0.796900
vt 0.240100 0.749400
vt 0.240100 0.749400
vt 0.287700 0.796900
vt 0.240100 0.796900
vt 0.240100 0.749400
vt 0.287700 0.796900
vt 0.240100 0.796900
vt 0.240100 0.796900
vt 0.240100 0.749400
vt 0.277900 0.753900
vt 0.249900 0.753900
vt 0.241300 0.780500
vt 0.212300 0.189200
vt 0.259900 0.236700
vt 0.212300 0.236700
vt 0.740100 0.763300
vt 0.787700 0.810800
vt 0.740100 0.810800
vt 0.787700 0.763300
vt 0.259300 0.207700
vt 0.212900 0.207700
vt 0.217500 0.227800
vt 0.740100 0.763300
vt 0.787700 0.763300
vt 0.787700 0.810800
vt 0.740100 0.763300
vt 0.787700 0.763300
vt 0.740100 0.810800
vt 0.740100 0.763300
vt 0.259900 0.189200
vt 0.212300 0.189200
vt 0.259900 0.189200
vt 0.212300 0.236700
vt 0.212300 0.189200
vt 0.259900 0.236700
vt 0.259900 0.189200
vt 0.212300 0.236700
vt 0.259900 0.189200
vt 0.212300 0.236700
vt 0.212300 0.189200
vt 0.259900 0.189200
vt 0.212300 0.236700
vt 0.736700 0.278400
vt 0.713000 0.278400
vt 0.726900 0.235400
vt 0.736700 0.278400
vt 0.736700 0.278400
vt 0.736700 0.278400
vt 0.736700 0.230900
vt 0.736700 0.230900
vt 0.736700 0.278400
vt 0.736700 0.230900
vt 0.736700 0.278400
vt 0.713000 0.278400
vt 0.726900 0.235400
vt 0.236100 0.236700
vt 0.250100 0.193700
vt 0.259900 0.236700
vt 0.259900 0.236700
vt 0.236100 0.236700
vt 0.254700 0.227800
vt 0.246400 0.191500
vt 0.225800 0.191500
vt 0.259900 0.189200
vt 0.259900 0.189200
vt 0.259900 0.236700
vt 0.259900 0.236700
vt 0.236100 0.236700
vt 0.250100 0.193700
vt 0.287700 0.796900
vt 0.241300 0.780500
vt 0.286500 0.780500
vt 0.287700 0.796900
vt 0.287700 0.796900
vt 0.287700 0.796900
vt 0.287700 0.749400
vt 0.287700 0.749400
vt 0.287700 0.796900
vt 0.287700 0.749400
vt 0.287700 0.796900
vt 0.263900 0.796900
vt 0.286500 0.780500
vt 0.259900 0.189200
vt 0.787700 0.763300
vt 0.236100 0.236700
vt 0.254700 0.227800
vt 0.246400 0.191500
vt 0.225800 0.191500
vt 0.787700 0.810800
vt 0.259900 0.236700
vt 0.259900 0.189200
vt 0.259900 0.236700
vt 0.259900 0.236700
vn 0.0000 1.0000 0.0000
vn 0.5494 0.0000 0.8355
vn -0.9989 0.0000 -0.0477
vn 0.0000 -1.0000 -0.0000
vn -0.5694 0.0000 -0.8221
vn 0.9604 -0.0000 0.2788
vn 0.6018 0.0000 -0.7987
vn -0.4106 0.9116 -0.0196
vn 0.2434 0.9146 -0.3230
vn 0.3947 0.9116 0.1146
vn -0.2381 0.9084 -0.3437
vn -0.7342 -0.0000 0.6790
vn -0.0529 0.9386 -0.3410
vn -0.0529 0.9386 -0.3409
vn -0.3392 0.0000 0.9407
vn -0.7575 0.0000 -0.6528
vn 0.1902 0.0000 -0.9818
vn 0.4898 -0.0000 0.8719
vn 0.9210 0.0000 -0.3897
vn 0.7734 0.6157 0.1507
vn -0.3780 0.9232 -0.0693
vn 0.3439 0.9276 -0.1460
vn 0.3099 0.9408 -0.1374
vn 0.3043 0.9428 -0.1360
vn 0.1716 0.9356 0.3085
vn 0.1523 0.9452 0.2888
vn 0.1754 0.9336 0.3123
vn 0.0770 0.9185 -0.3879
vn 0.0782 0.9408 -0.3299
vn 0.0768 0.9147 -0.3967
vn -0.9836 0.0000 -0.1804
vn -0.6949 -0.0000 0.7191
vn -0.1723 0.0000 -0.9850
vn 0.6774 0.0000 -0.7357
vn -0.0616 -0.0000 0.9981
vn 0.9111 -0.0000 0.4122
vn -0.1393 0.5888 -0.7962
vn 0.7314 0.5962 0.3309
vn -0.0498 0.5888 0.8068
vn 0.5514 0.5808 -0.5988
vn -0.8233 0.0000 -0.5676
vn 0.1939 0.9172 0.3480
vn 0.1733 0.9288 0.3277
vn 0.1974 0.9152 0.3514
vn 0.6515 0.6922 -0.3106
vn 0.7731 0.4879 -0.4052
vn 0.8003 0.4188 -0.4290
vn -0.8718 0.4895 -0.0220
vn 0.6669 -0.0122 0.7450
vn 0.3099 0.0401 0.9499
vn -0.5421 0.4572 0.7050
vn -0.5081 0.5346 0.6753
vn -0.5522 0.4315 0.7134
vn -0.2733 0.9321 -0.2377
vn -0.3240 0.8958 -0.3044
vn -0.3284 0.8922 -0.3102
vn -0.4992 0.8062 -0.3174
vn 0.0684 0.9590 -0.2751
vn 0.2545 0.9270 0.2754
vn 0.2544 0.9270 0.2754
vn -0.4935 0.7586 -0.4253
vn 0.3470 0.9263 -0.1468
vn 0.1493 0.9466 0.2858
vn 0.0784 0.9457 -0.3154
vn 0.1691 0.9310 0.3236
vn 0.6154 0.7351 -0.2845
vn -0.4970 0.5572 0.6653
vn -0.2685 0.9351 -0.2314
usemtl color3
s 1
f 1/1/1 2/2/1 3/3/1
f 4/4/2 5/5/2 6/6/2
f 7/7/3 8/8/3 9/9/3
f 10/10/4 6/11/4 5/12/4
f 11/13/5 12/14/5 7/15/5
f 13/16/6 14/17/6 15/18/6
f 8/19/4 10/20/4 5/21/4
f 15/22/7 10/23/7 11/24/7
f 4/25/1 1/26/1 3/27/1
f 16/28/8 9/29/8 2/30/8
f 1/31/9 15/32/9 11/33/9
f 17/34/10 13/35/10 15/36/10
f 1/1/11 7/37/11 16/38/11
f 2/39/12 8/40/12 5/41/12
f 18/42/13 19/43/13 20/44/14
f 21/45/15 22/46/15 23/47/15
f 24/48/16 25/49/16 26/50/16
f 27/51/4 23/52/4 22/53/4
f 28/54/17 29/55/17 24/56/17
f 30/57/18 23/58/18 31/59/18
f 25/60/4 27/61/4 22/62/4
f 32/63/19 27/64/19 28/65/19
f 33/66/20 34/67/20 35/68/20
f 36/69/21 37/70/21 38/71/21
f 39/72/22 28/73/23 40/74/24
f 33/75/25 41/76/26 42/77/27
f 18/42/28 28/78/29 24/79/30
f 36/80/31 25/81/31 22/82/31
f 43/83/1 44/84/1 45/85/1
f 46/86/32 47/87/32 45/88/32
f 48/89/33 49/90/33 50/91/33
f 51/92/4 52/93/4 46/94/4
f 53/95/34 54/96/34 48/97/34
f 47/98/35 55/99/35 56/100/35
f 49/101/4 51/102/4 46/103/4
f 56/104/36 51/105/36 53/106/36
f 57/107/1 43/108/1 45/109/1
f 58/110/37 50/111/37 44/112/37
f 43/113/38 56/114/38 53/115/38
f 59/116/39 47/117/39 56/118/39
f 43/83/40 48/119/40 58/120/40
f 50/121/41 49/122/41 46/123/41
f 39/124/42 60/125/43 32/126/44
f 34/127/45 42/128/46 61/129/47
f 34/127/48 62/130/48 35/68/48
f 35/131/1 40/132/1 63/133/1
f 61/134/49 42/135/49 30/136/49
f 60/137/50 61/138/50 30/136/50
f 34/67/51 60/139/52 62/140/53
f 64/141/1 38/71/1 37/142/1
f 20/143/54 65/144/55 38/145/56
f 26/50/57 38/146/57 65/144/57
f 18/147/58 64/148/58 40/74/58
f 40/149/59 37/150/60 63/151/60
f 26/152/61 19/153/61 24/56/61
f 1/1/1 16/154/1 2/2/1
f 6/6/2 13/155/2 4/4/2
f 4/4/2 3/156/2 5/5/2
f 7/7/3 12/157/3 8/8/3
f 10/10/4 14/158/4 6/11/4
f 11/13/5 10/20/5 12/14/5
f 13/16/6 6/159/6 14/17/6
f 8/19/4 12/160/4 10/20/4
f 15/22/7 14/158/7 10/23/7
f 4/25/1 17/161/1 1/26/1
f 16/28/8 7/162/8 9/29/8
f 1/31/9 17/161/9 15/32/9
f 17/34/10 4/163/10 13/35/10
f 1/1/11 11/164/11 7/37/11
f 5/41/12 3/165/12 2/39/12
f 2/39/12 9/166/12 8/40/12
f 18/42/13 24/48/13 19/43/13
f 23/47/15 41/167/15 21/45/15
f 21/45/15 63/168/15 22/46/15
f 24/48/16 29/169/16 25/49/16
f 27/51/4 31/170/4 23/52/4
f 28/54/17 27/61/17 29/55/17
f 31/59/18 32/171/18 60/172/18
f 30/57/18 42/173/18 41/174/18
f 31/59/18 60/172/18 30/57/18
f 30/57/18 41/174/18 23/58/18
f 25/60/4 29/175/4 27/61/4
f 32/63/19 31/170/19 27/64/19
f 36/69/21 63/176/21 37/70/21
f 39/72/22 32/177/62 28/73/23
f 33/75/25 21/178/63 41/76/26
f 18/42/28 40/149/64 28/78/29
f 22/82/31 63/179/31 36/80/31
f 36/80/31 26/180/31 25/81/31
f 43/83/1 58/181/1 44/84/1
f 52/182/32 47/87/32 46/86/32
f 47/87/32 57/183/32 45/88/32
f 48/89/33 54/184/33 49/90/33
f 51/92/4 55/185/4 52/93/4
f 53/95/34 51/102/34 54/96/34
f 47/98/35 52/186/35 55/99/35
f 49/101/4 54/187/4 51/102/4
f 56/104/36 55/185/36 51/105/36
f 57/107/1 59/188/1 43/108/1
f 58/110/37 48/189/37 50/111/37
f 43/113/38 59/188/38 56/114/38
f 59/116/39 57/190/39 47/117/39
f 43/83/40 53/191/40 48/119/40
f 46/123/41 45/192/41 50/121/41
f 45/192/41 44/193/41 50/121/41
f 39/124/42 62/194/65 60/125/43
f 34/127/45 33/195/66 42/128/46
f 63/133/1 21/196/1 35/131/1
f 21/196/1 33/197/1 35/131/1
f 35/131/1 62/198/1 39/199/1
f 35/131/1 39/199/1 40/132/1
f 34/67/51 61/200/67 60/139/52
f 64/141/1 20/201/1 38/71/1
f 20/143/54 19/43/68 65/144/55
f 26/50/57 36/202/57 38/146/57
f 18/147/58 20/201/58 64/148/58
f 40/149/59 64/203/59 37/150/60
f 26/152/61 65/204/61 19/153/61
